<?xml version="1.0" encoding="iso-8859-1"?>
<!-- Generator: Adobe Illustrator 18.1.1, SVG Export Plug-In . SVG Version: 6.00 Build 0)  -->
<svg version="1.1" id="Capa_1" xmlns="http://www.w3.org/2000/svg" xmlns:xlink="http://www.w3.org/1999/xlink" x="0px" y="0px"
	 viewBox="0 0 95.396 95.396" style="enable-background:new 0 0 95.396 95.396;" xml:space="preserve">
<g id="_x35__7_">
	<g>
		<path style="fill-rule:evenodd;clip-rule:evenodd;" d="M49.868,9.56H45.16v13.866h4.708V9.56z M86.404,26.224l-3.326-3.332
			l-9.819,9.793l3.325,3.332L86.404,26.224z M22.074,32.953l-9.77-9.841l-3.341,3.316l9.77,9.841L22.074,32.953z M83.922,48.659
			l6.163-3.041l-2.083-4.221l-6.164,3.04L83.922,48.659z M34.901,25.707l-3.026-6.171l-4.227,2.071l3.026,6.171L34.901,25.707z
			 M13.297,44.826l-6.495-2.25l-1.542,4.448l6.495,2.25L13.297,44.826z M66.962,20.802l-4.444-1.552l-2.266,6.488l4.444,1.552
			L66.962,20.802z M81.241,59.783c-1.236-17.529-15.885-31.415-33.727-31.415c-17.841,0-32.49,13.887-33.726,31.415H0v4.707h95.396
			v-4.707H81.241z M18.508,59.783c1.225-14.931,13.762-26.708,29.006-26.708c15.245,0,27.781,11.777,29.006,26.708H18.508z
			 M10.634,75.163h74.107v-4.707H10.634V75.163z M20.404,85.836h54.518v-4.707H20.404V85.836z"/>
	</g>
</g>
<g>
</g>
<g>
</g>
<g>
</g>
<g>
</g>
<g>
</g>
<g>
</g>
<g>
</g>
<g>
</g>
<g>
</g>
<g>
</g>
<g>
</g>
<g>
</g>
<g>
</g>
<g>
</g>
<g>
</g>
</svg>
